<svg xmlns="http://www.w3.org/2000/svg" xmlns:xlink="http://www.w3.org/1999/xlink" width="500" zoomAndPan="magnify" viewBox="0 0 375 374.999991" height="500" preserveAspectRatio="xMidYMid meet" version="1.0">
    <defs>
        <clipPath id="id1">
            <path d="M 5 50 L 370.511719 50 L 370.511719 324 L 5 324 Z M 5 50 " clip-rule="nonzero" />
        </clipPath>
        <clipPath id="id2">
            <path d="M 5 278 L 370.511719 278 L 370.511719 294 L 5 294 Z M 5 278 " clip-rule="nonzero" />
        </clipPath>
    </defs>
    <g clip-path="url(#id1)">
        <path fill="#8c52ff" d="M 354.796875 308.664062 L 20.226562 308.664062 L 20.226562 65.339844 L 215.351562 65.339844 C 219.550781 65.339844 222.957031 61.933594 222.957031 57.738281 C 222.957031 53.539062 219.550781 50.132812 215.351562 50.132812 L 12.621094 50.132812 C 8.421875 50.132812 5.015625 53.539062 5.015625 57.738281 L 5.015625 316.269531 C 5.015625 320.46875 8.421875 323.875 12.621094 323.875 L 362.398438 323.875 C 366.597656 323.875 370.003906 320.46875 370.003906 316.269531 L 370.003906 57.738281 C 370.003906 53.539062 366.597656 50.132812 362.398438 50.132812 C 358.203125 50.132812 354.796875 53.539062 354.796875 57.738281 Z M 354.796875 308.664062 " fill-opacity="1" fill-rule="nonzero" />
    </g>
    <g clip-path="url(#id2)">
        <path fill="#8c52ff" d="M 12.621094 293.457031 L 362.398438 293.457031 C 366.597656 293.457031 370.003906 290.050781 370.003906 285.855469 C 370.003906 281.65625 366.597656 278.25 362.398438 278.25 L 12.621094 278.25 C 8.421875 278.25 5.015625 281.65625 5.015625 285.855469 C 5.015625 290.050781 8.421875 293.457031 12.621094 293.457031 Z M 12.621094 293.457031 " fill-opacity="1" fill-rule="nonzero" />
    </g>
    <path fill="#8c52ff" d="M 119.074219 369.496094 L 255.945312 369.496094 C 260.144531 369.496094 263.550781 366.089844 263.550781 361.890625 C 263.550781 357.695312 260.144531 354.289062 255.945312 354.289062 L 119.074219 354.289062 C 114.878906 354.289062 111.472656 357.695312 111.472656 361.890625 C 111.472656 366.089844 114.878906 369.496094 119.074219 369.496094 Z M 119.074219 369.496094 " fill-opacity="1" fill-rule="nonzero" />
    <path fill="#8c52ff" d="M 141.492188 364.308594 L 156.699219 318.683594 C 158.046875 314.683594 155.867188 310.367188 151.90625 309.0625 C 147.90625 307.714844 143.589844 309.894531 142.28125 313.851562 L 127.074219 359.476562 C 125.730469 363.476562 127.90625 367.792969 131.867188 369.101562 C 135.867188 370.445312 140.183594 368.269531 141.492188 364.308594 Z M 141.492188 364.308594 " fill-opacity="1" fill-rule="nonzero" />
    <path fill="#8c52ff" d="M 233.53125 364.308594 L 218.320312 318.683594 C 216.976562 314.683594 219.152344 310.367188 223.113281 309.0625 C 227.113281 307.714844 231.429688 309.894531 232.738281 313.851562 L 247.945312 359.476562 C 249.292969 363.476562 247.113281 367.792969 243.152344 369.101562 C 239.152344 370.445312 234.835938 368.269531 233.53125 364.308594 Z M 233.53125 364.308594 " fill-opacity="1" fill-rule="nonzero" />
    <path fill="#8c52ff" d="M 330.164062 72.746094 L 174.558594 209.378906 C 173.09375 210.648438 166.164062 200.863281 158.441406 193.261719 C 150.046875 184.984375 140.9375 178.726562 142.324219 177.140625 L 278.953125 21.539062 C 293.054688 5.660156 316.777344 4.945312 331.746094 19.957031 C 346.796875 34.964844 346.042969 58.648438 330.164062 72.746094 Z M 321.015625 30.6875 C 312.183594 21.894531 298.636719 22.292969 290.359375 31.597656 L 158.441406 181.816406 L 169.886719 193.261719 L 320.0625 61.382812 C 329.410156 53.0625 329.84375 39.519531 321.015625 30.6875 Z M 321.015625 30.6875 " fill-opacity="1" fill-rule="nonzero" />
    <path fill="#8c52ff" d="M 77.054688 246.367188 C 72.5 242.6875 73.648438 235.4375 79.117188 233.339844 C 88.898438 229.617188 94.007812 222.6875 100.898438 206.765625 C 107.074219 192.507812 108.777344 189.179688 113.609375 184.308594 C 128.460938 169.457031 152.539062 169.457031 167.390625 184.308594 C 182.242188 199.160156 182.242188 223.242188 167.390625 238.09375 C 147.390625 258.050781 103.113281 267.28125 77.054688 246.367188 Z M 156.621094 227.320312 C 165.53125 218.410156 165.53125 203.992188 156.621094 195.082031 C 147.707031 186.171875 133.292969 186.171875 124.382812 195.082031 C 121.53125 197.933594 120.027344 200.824219 114.878906 212.785156 C 109.292969 225.695312 104.261719 234.289062 97.175781 240.269531 C 116.898438 247.199219 144.066406 239.914062 156.621094 227.320312 Z M 156.621094 227.320312 " fill-opacity="1" fill-rule="nonzero" />
    <path fill="#8c52ff" d="M 173.964844 155.757812 L 195.90625 177.578125 C 198.875 180.546875 203.667969 180.546875 206.640625 177.578125 C 209.609375 174.605469 209.609375 169.777344 206.640625 166.804688 L 184.699219 144.984375 C 181.726562 142.015625 176.898438 142.054688 173.925781 145.023438 C 170.957031 147.992188 170.996094 152.785156 173.964844 155.757812 Z M 173.964844 155.757812 " fill-opacity="1" fill-rule="nonzero" />
</svg>